<svg aria-hidden="true" style="position: absolute; width: 0; height: 0; overflow: hidden;" version="1.1" xmlns="http://www.w3.org/2000/svg" xmlns:xlink="http://www.w3.org/1999/xlink">
    <defs>
        <symbol id="search" viewBox="0 0 32 32">
            <path d="M15.333 1.667c-7.536 0-13.667 6.131-13.667 13.667s6.131 13.667 13.667 13.667c3.401 0 6.418-1.374 8.812-3.438l4.479 4.479c0.181 0.182 0.432 0.294 0.708 0.294s0.527-0.112 0.708-0.294l0-0c0.182-0.181 0.294-0.432 0.294-0.708s-0.112-0.527-0.294-0.708l-4.479-4.479c2.063-2.394 3.438-5.411 3.438-8.813 0-7.536-6.131-13.667-13.667-13.667zM15.333 3.667c6.455 0 11.667 5.212 11.667 11.667s-5.212 11.667-11.667 11.667c-6.455 0-11.667-5.212-11.667-11.667s5.212-11.667 11.667-11.667z"></path>
        </symbol>

        <symbol id="user-circle" viewBox="0 0 32 32">
            <path d="M16 1.667c-7.904 0-14.333 6.429-14.333 14.333 0 4.313 1.912 8.193 4.932 10.82 2.516 2.188 5.81 3.513 9.401 3.513s6.886-1.325 9.401-3.513c3.021-2.627 4.932-6.508 4.932-10.82 0-7.904-6.429-14.333-14.333-14.333zM16 3.667c6.823 0 12.333 5.51 12.333 12.333 0 3.251-1.409 6.067-3.458 8.268-1.783-3.111-5.042-5.268-8.875-5.268s-7.092 2.157-8.875 5.268c-2.050-2.201-3.458-5.017-3.458-8.268 0-6.823 5.51-12.333 12.333-12.333zM16 7c-2.75 0-5 2.25-5 5s2.25 5 5 5 5-2.25 5-5c0-2.75-2.25-5-5-5zM16 9c1.669 0 3 1.331 3 3s-1.331 3-3 3-3-1.331-3-3c0-1.669 1.331-3 3-3zM16 21c3.297 0 6.063 1.95 7.417 4.714-2.075 1.586-4.598 2.62-7.417 2.62s-5.342-1.033-7.417-2.62c1.354-2.764 4.12-4.714 7.417-4.714z"></path>
        </symbol>

        <symbol id="shopping-bag" viewBox="0 0 32 32">
            <path d="M12 7c-0.552 0-1 0.448-1 1v0 1.333c0 2.75 2.25 5 5 5s5-2.25 5-5v-1.333c0-0.552-0.448-1-1-1v0c-0.552 0-1 0.448-1 1v0 1.333c0 1.669-1.331 3-3 3s-3-1.331-3-3v-1.333c0-0.552-0.448-1-1-1v0z"></path>
            <path d="M11.185 3c-3.089 0-5.74 2.245-6.247 5.292l-2.221 13.333c-0.64 3.841 2.353 7.375 6.247 7.375h14.073c3.894 0 6.888-3.534 6.247-7.375l-2.221-13.333c-0.508-3.047-3.158-5.292-6.247-5.292zM11.185 5h9.63c2.125 0 3.924 1.524 4.273 3.62l2.224 13.333c0.443 2.66-1.579 5.047-4.276 5.047h-14.073c-2.697 0-4.719-2.387-4.276-5.047l2.224-13.333c0.349-2.096 2.148-3.62 4.273-3.62z"></path>
        </symbol>

        <symbol id="menu-hamburger" viewBox="0 0 32 32">
            <path d="M9.333 9.667c-0.552 0-1 0.448-1 1v0c0 0.552 0.448 1 1 1v0h13.333c0.552 0 1-0.448 1-1v0c0-0.552-0.448-1-1-1v0zM9.333 15c-0.552 0-1 0.448-1 1v0c0 0.552 0.448 1 1 1v0h13.333c0.552 0 1-0.448 1-1v0c0-0.552-0.448-1-1-1v0zM9.333 20.333c-0.552 0-1 0.448-1 1v0c0 0.552 0.448 1 1 1v0h13.333c0.552 0 1-0.448 1-1v0c0-0.552-0.448-1-1-1v0z"></path>
        </symbol>
    </defs>
</svg>
