<svg aria-hidden="true" style="position: absolute; width: 0; height: 0; overflow: hidden;" version="1.1" xmlns="http://www.w3.org/2000/svg" xmlns:xlink="http://www.w3.org/1999/xlink">
    <defs>
        <symbol id="search" viewBox="0 0 32 32">
            <path d="M15.333 1.667c-7.536 0-13.667 6.131-13.667 13.667s6.131 13.667 13.667 13.667c3.401 0 6.418-1.374 8.812-3.438l4.479 4.479c0.181 0.182 0.432 0.294 0.708 0.294s0.527-0.112 0.708-0.294l0-0c0.182-0.181 0.294-0.432 0.294-0.708s-0.112-0.527-0.294-0.708l-4.479-4.479c2.063-2.394 3.438-5.411 3.438-8.813 0-7.536-6.131-13.667-13.667-13.667zM15.333 3.667c6.455 0 11.667 5.212 11.667 11.667s-5.212 11.667-11.667 11.667c-6.455 0-11.667-5.212-11.667-11.667s5.212-11.667 11.667-11.667z"></path>
        </symbol>

        <symbol id="user-circle" viewBox="0 0 32 32">
            <path d="M16 1.667c-7.904 0-14.333 6.429-14.333 14.333 0 4.313 1.912 8.193 4.932 10.82 2.516 2.188 5.81 3.513 9.401 3.513s6.886-1.325 9.401-3.513c3.021-2.627 4.932-6.508 4.932-10.82 0-7.904-6.429-14.333-14.333-14.333zM16 3.667c6.823 0 12.333 5.51 12.333 12.333 0 3.251-1.409 6.067-3.458 8.268-1.783-3.111-5.042-5.268-8.875-5.268s-7.092 2.157-8.875 5.268c-2.050-2.201-3.458-5.017-3.458-8.268 0-6.823 5.51-12.333 12.333-12.333zM16 7c-2.75 0-5 2.25-5 5s2.25 5 5 5 5-2.25 5-5c0-2.75-2.25-5-5-5zM16 9c1.669 0 3 1.331 3 3s-1.331 3-3 3-3-1.331-3-3c0-1.669 1.331-3 3-3zM16 21c3.297 0 6.063 1.95 7.417 4.714-2.075 1.586-4.598 2.62-7.417 2.62s-5.342-1.033-7.417-2.62c1.354-2.764 4.12-4.714 7.417-4.714z"></path>
        </symbol>

        <symbol id="shopping-bag" viewBox="0 0 32 32">
            <path d="M12 7c-0.552 0-1 0.448-1 1v0 1.333c0 2.75 2.25 5 5 5s5-2.25 5-5v-1.333c0-0.552-0.448-1-1-1v0c-0.552 0-1 0.448-1 1v0 1.333c0 1.669-1.331 3-3 3s-3-1.331-3-3v-1.333c0-0.552-0.448-1-1-1v0z"></path>
            <path d="M11.185 3c-3.089 0-5.74 2.245-6.247 5.292l-2.221 13.333c-0.64 3.841 2.353 7.375 6.247 7.375h14.073c3.894 0 6.888-3.534 6.247-7.375l-2.221-13.333c-0.508-3.047-3.158-5.292-6.247-5.292zM11.185 5h9.63c2.125 0 3.924 1.524 4.273 3.62l2.224 13.333c0.443 2.66-1.579 5.047-4.276 5.047h-14.073c-2.697 0-4.719-2.387-4.276-5.047l2.224-13.333c0.349-2.096 2.148-3.62 4.273-3.62z"></path>
        </symbol>

        <symbol id="menu-hamburger" viewBox="0 0 32 32">
            <path d="M9.333 9.667c-0.552 0-1 0.448-1 1v0c0 0.552 0.448 1 1 1v0h13.333c0.552 0 1-0.448 1-1v0c0-0.552-0.448-1-1-1v0zM9.333 15c-0.552 0-1 0.448-1 1v0c0 0.552 0.448 1 1 1v0h13.333c0.552 0 1-0.448 1-1v0c0-0.552-0.448-1-1-1v0zM9.333 20.333c-0.552 0-1 0.448-1 1v0c0 0.552 0.448 1 1 1v0h13.333c0.552 0 1-0.448 1-1v0c0-0.552-0.448-1-1-1v0z"></path>
        </symbol>

        <symbol id="close" viewBox="0 0 32 32">
            <path d="M7.057 7.057c0.521-0.521 1.365-0.521 1.886 0l7.057 7.057 7.057-7.057c0.521-0.521 1.365-0.521 1.886 0s0.521 1.365 0 1.886l-7.057 7.057 7.057 7.057c0.521 0.521 0.521 1.365 0 1.886s-1.365 0.521-1.886 0l-7.057-7.057-7.057 7.057c-0.521 0.521-1.365 0.521-1.886 0s-0.521-1.365 0-1.886l7.057-7.057-7.057-7.057c-0.521-0.521-0.521-1.365 0-1.886z"></path>
        </symbol>

        <symbol id="heart" viewBox="0 0 31 32">
            <path d="M16.246 9.707l0.886-0.851c1.037-0.995 2.439-1.603 3.987-1.603 3.181 0 5.76 2.579 5.76 5.76 0 3.050-1.651 5.568-4.034 7.637-2.385 2.071-5.237 3.444-6.941 4.145-0.356 0.147-0.733 0.147-1.089 0-1.704-0.701-4.556-2.074-6.941-4.145-2.383-2.069-4.034-4.587-4.034-7.637 0-3.181 2.579-5.76 5.76-5.76 1.549 0 2.95 0.608 3.987 1.603l0.886 0.851c0.495 0.475 1.277 0.475 1.773 0zM15.36 7.010c-1.495-1.435-3.524-2.316-5.76-2.316-4.595 0-8.32 3.725-8.32 8.32 0 8.151 8.922 12.653 12.562 14.15 0.98 0.403 2.056 0.403 3.037 0 3.64-1.497 12.562-5.999 12.562-14.15 0-4.595-3.725-8.32-8.32-8.32-2.236 0-4.265 0.882-5.76 2.316z"></path>
        </symbol>

        <symbol id="instagram" viewBox="0 0 32 32">
            <path d="M8 1.667c-3.491 0-6.333 2.842-6.333 6.333v16c0 3.491 2.842 6.333 6.333 6.333h16c3.491 0 6.333-2.842 6.333-6.333v-16c0-3.491-2.842-6.333-6.333-6.333zM8 3.667h16c2.418 0 4.333 1.915 4.333 4.333v16c0 2.418-1.915 4.333-4.333 4.333h-16c-2.418 0-4.333-1.915-4.333-4.333v-16c0-2.418 1.915-4.333 4.333-4.333z"></path>
            <path d="M25.333 8c0 0.736-0.597 1.333-1.333 1.333s-1.333-0.597-1.333-1.333c0-0.736 0.597-1.333 1.333-1.333s1.333 0.597 1.333 1.333z"></path>
            <path d="M16 8.333c-4.222 0-7.667 3.444-7.667 7.667s3.444 7.667 7.667 7.667c4.222 0 7.667-3.444 7.667-7.667s-3.444-7.667-7.667-7.667zM16 10.333c3.141 0 5.667 2.525 5.667 5.667s-2.525 5.667-5.667 5.667c-3.141 0-5.667-2.525-5.667-5.667s2.525-5.667 5.667-5.667z"></path>
        </symbol>

        <symbol id="facebook" viewBox="0 0 32 32">
            <path d="M20 3c-4.222 0-7.667 3.444-7.667 7.667v1.667h-4.333c-0.552 0-1 0.448-1 1v0 5.333c0 0.552 0.448 1 1 1h4.333v8.333c0 0.552 0.448 1 1 1h5.333c0.552-0 1-0.448 1-1v0-8.333h4.333c0.552-0 1-0.448 1-1v0-5.333c-0-0.552-0.448-1-1-1h-4.333v-1.667c0-0.196 0.137-0.333 0.333-0.333h4c0.552-0 1-0.448 1-1v0-5.333c-0-0.552-0.448-1-1-1v0zM20 5h3v3.333h-3c-1.277 0-2.333 1.057-2.333 2.333v2.667c0 0.552 0.448 1 1 1h4.333v3.333h-4.333c-0.552 0-1 0.448-1 1v0 8.333h-3.333v-8.333c-0-0.552-0.448-1-1-1h-4.333v-3.333h4.333c0.552-0 1-0.448 1-1v0-2.667c0-3.141 2.525-5.667 5.667-5.667z"></path>
        </symbol>

        <symbol id="youtube" viewBox="0 0 32 32">
            <path d="M8 3c-3.491 0-6.333 2.842-6.333 6.333v13.333c0 3.491 2.842 6.333 6.333 6.333h16c3.491 0 6.333-2.842 6.333-6.333v-13.333c0-3.491-2.842-6.333-6.333-6.333zM8 5h16c2.418 0 4.333 1.915 4.333 4.333v13.333c0 2.418-1.915 4.333-4.333 4.333h-16c-2.418 0-4.333-1.915-4.333-4.333v-13.333c0-2.418 1.915-4.333 4.333-4.333z"></path>
            <path d="M14.378 10.737c-1.514-0.757-3.378 0.393-3.378 2.086v6.354c0 1.693 1.864 2.843 3.378 2.086l6.352-3.177c1.664-0.832 1.664-3.34 0-4.172zM13.482 12.526l6.352 3.177c0.302 0.151 0.302 0.443 0 0.594l-6.352 3.177c-0.259 0.129-0.482-0.007-0.482-0.297v-6.354c0-0.29 0.223-0.426 0.482-0.297z"></path>
        </symbol>
    </defs>
</svg>
